<?xml version="1.0" standalone="no"?>
<!DOCTYPE svg PUBLIC "-//W3C//DTD SVG 20010904//EN"
 "http://www.w3.org/TR/2001/REC-SVG-20010904/DTD/svg10.dtd">
<svg version="1.0" xmlns="http://www.w3.org/2000/svg"
 width="249.000000pt" height="247.000000pt" viewBox="0 0 249.000000 247.000000"
 preserveAspectRatio="xMidYMid meet">

<g transform="translate(0.000000,247.000000) scale(0.100000,-0.100000)"
fill="#000000" stroke="none">
<path d="M1148 2459 c-486 -41 -910 -363 -1072 -817 -90 -253 -90 -561 0 -814
148 -415 519 -725 962 -804 114 -20 323 -19 431 1 445 85 807 390 955 803 89
250 89 564 0 814 -187 523 -718 863 -1276 817z m246 -319 c35 -17 83 -48 107
-68 l43 -38 67 27 c38 15 99 36 136 45 125 32 373 14 381 -27 2 -13 -12 -14
-91 -11 -108 5 -203 -17 -321 -73 -100 -47 -100 -48 -86 -76 6 -13 24 -34 38
-46 l26 -22 38 35 c44 39 60 42 89 13 17 -17 20 -30 17 -67 -3 -26 -8 -55 -12
-64 -13 -29 5 -21 84 38 118 89 193 115 209 72 16 -45 -26 -124 -141 -265 -60
-74 -76 -114 -37 -93 16 9 26 8 45 -4 50 -34 44 -108 -15 -164 l-38 -37 12
-180 c7 -99 14 -223 16 -275 4 -89 3 -95 -16 -95 -26 0 -33 16 -109 241 l-63
186 -18 -78 c-38 -171 -106 -310 -202 -414 -79 -85 -141 -125 -234 -152 -114
-32 -239 -9 -338 62 -22 17 -45 30 -51 30 -5 0 -36 -19 -68 -43 -181 -133
-317 -197 -421 -197 -61 0 -70 3 -94 28 -25 26 -27 35 -27 108 0 86 21 167 66
257 44 86 143 246 209 338 l65 90 0 135 c0 363 151 671 382 783 59 28 71 31
175 31 105 0 117 -2 177 -30z"/>
<path d="M1180 2104 c-8 -3 -24 -23 -34 -45 -42 -86 -225 -285 -350 -380 -34
-26 -47 -44 -56 -78 -6 -24 -8 -46 -5 -49 13 -13 190 123 296 228 135 133 177
184 214 259 22 43 25 55 14 62 -14 9 -52 10 -79 3z"/>
<path d="M1054 2065 c-102 -51 -200 -165 -259 -298 l-26 -59 28 22 c81 63 215
203 281 292 58 79 56 83 -24 43z"/>
<path d="M1306 1994 c-55 -112 -80 -146 -202 -270 -136 -138 -217 -202 -348
-278 l-49 -29 6 -102 c6 -100 39 -269 61 -311 11 -22 13 -21 91 32 128 85 284
249 392 409 41 61 109 190 124 235 4 14 19 57 33 95 14 39 26 79 26 89 0 10
-20 53 -44 95 -24 42 -45 84 -47 95 -3 12 -17 -8 -43 -60z"/>
<path d="M1426 1989 c7 -8 53 -86 103 -173 74 -128 91 -166 90 -195 -1 -20 5
-50 14 -68 9 -18 17 -40 17 -49 0 -9 -30 -51 -68 -93 -37 -42 -91 -104 -121
-139 -29 -34 -58 -62 -64 -62 -6 0 -29 17 -50 38 l-39 37 21 -42 c12 -23 21
-58 21 -78 0 -22 5 -35 13 -35 7 0 23 -19 35 -42 l22 -43 -6 52 c-3 28 -3 61
1 72 8 28 253 223 274 219 9 -2 25 -19 35 -39 11 -20 28 -40 40 -45 15 -7 36
-58 85 -201 36 -105 66 -191 67 -190 0 1 -4 97 -9 214 l-10 212 41 45 c42 45
51 69 32 81 -5 3 -19 1 -31 -5 -32 -18 -59 12 -59 67 0 36 6 50 38 86 100 109
177 227 149 227 -19 0 -121 -63 -177 -110 -55 -46 -68 -49 -98 -17 -26 27 -28
55 -7 83 18 24 19 64 2 64 -7 0 -26 -13 -42 -30 -16 -16 -37 -30 -47 -30 -10
0 -72 42 -136 93 -124 99 -155 121 -136 96z"/>
<path d="M1240 1960 c-6 -11 -8 -20 -6 -20 3 0 10 9 16 20 6 11 8 20 6 20 -3
0 -10 -9 -16 -20z"/>
<path d="M1207 1908 c-28 -43 -202 -215 -282 -279 -45 -36 -109 -82 -143 -104
-34 -21 -61 -40 -58 -42 7 -7 110 59 191 122 118 93 341 325 312 325 -3 0 -11
-10 -20 -22z"/>
<path d="M1441 1739 c-47 -124 -70 -175 -124 -268 -49 -82 -49 -83 -30 -103
20 -19 20 -18 74 63 70 107 72 111 113 194 49 99 51 113 23 159 l-24 39 -32
-84z"/>
<path d="M1530 1656 c-7 -21 -28 -66 -47 -99 -20 -34 -41 -71 -47 -82 -6 -11
-30 -48 -54 -82 -23 -34 -42 -65 -42 -69 0 -6 48 -54 54 -54 9 0 206 233 206
243 0 7 -7 25 -16 42 -9 18 -13 42 -10 60 4 20 0 38 -13 54 l-18 24 -13 -37z"/>
<path d="M1215 1324 c-51 -78 -210 -237 -312 -312 -45 -33 -88 -62 -95 -65 -7
-2 -10 -7 -7 -11 9 -9 111 40 182 87 53 35 211 183 260 243 15 18 16 25 4 53
l-14 32 -18 -27z"/>
<path d="M1561 1239 c-61 -49 -111 -94 -111 -98 0 -4 7 -56 15 -116 13 -88 13
-111 3 -122 -19 -19 -33 -5 -68 71 l-31 69 -102 -99 c-107 -104 -239 -223
-264 -237 -21 -13 1 -35 62 -63 78 -37 101 -33 190 35 139 107 325 299 404
416 59 89 71 140 46 196 -10 21 -21 39 -25 39 -4 0 -57 -41 -119 -91z"/>
<path d="M1257 1227 c-63 -92 -248 -246 -364 -303 -65 -32 -71 -37 -61 -54 11
-17 15 -16 67 17 125 80 391 310 391 338 0 24 -17 26 -33 2z"/>
<path d="M1230 1096 c-159 -155 -347 -290 -454 -326 -59 -19 -67 -20 -94 -6
-18 9 -32 26 -34 41 -8 37 8 108 35 161 23 45 23 47 8 115 -9 38 -19 69 -22
69 -7 0 -151 -211 -194 -285 -149 -256 -165 -425 -40 -425 34 0 179 54 228 84
222 138 319 214 559 439 106 100 116 112 106 131 -6 12 -14 33 -17 48 -6 27
-7 27 -81 -46z"/>
<path d="M1639 1002 c-45 -63 -269 -287 -343 -342 -32 -24 -53 -46 -47 -48 18
-6 121 28 165 55 95 59 183 171 237 304 16 40 28 74 26 75 -2 2 -19 -17 -38
-44z"/>
<path d="M702 901 c-7 -21 -12 -50 -12 -65 0 -22 4 -26 28 -25 59 1 63 8 34
72 -15 31 -30 57 -33 57 -3 0 -11 -17 -17 -39z"/>
</g>
</svg>
