<?xml version="1.0" encoding="utf-8"?>
<!-- Generator: Adobe Illustrator 21.1.0, SVG Export Plug-In . SVG Version: 6.00 Build 0)  -->
<svg version="1.1" id="Icons" xmlns="http://www.w3.org/2000/svg" xmlns:xlink="http://www.w3.org/1999/xlink" x="0px" y="0px"
	 viewBox="0 0 48 48" style="enable-background:new 0 0 48 48;" xml:space="preserve">
<style type="text/css">
	.st0{fill:#FFE500;}
	.st1{fill:#FFA694;}
	.st2{fill:#FFF48C;}
	.st3{fill:none;stroke:#45413C;stroke-linecap:round;stroke-linejoin:round;stroke-miterlimit:10;}
	.st4{fill:#FF866E;}
	.st5{opacity:0.15;fill:#45413C;}
	.st6{fill:none;stroke:#45413C;stroke-linecap:round;stroke-miterlimit:10;}
	.st7{fill:#FF6242;}
	.st8{fill:#FFB0CA;stroke:#45413C;stroke-linecap:round;stroke-linejoin:round;stroke-miterlimit:10;}
	.st9{fill:#FF866E;stroke:#45413C;stroke-linecap:round;stroke-linejoin:round;stroke-miterlimit:10;}
	.st10{fill:#FFFFFF;stroke:#45413C;stroke-linecap:round;stroke-linejoin:round;stroke-miterlimit:10;}
	.st11{fill:#FFE500;stroke:#45413C;stroke-linecap:round;stroke-linejoin:round;stroke-miterlimit:10;}
	.st12{fill:#45413C;stroke:#45413C;stroke-linecap:round;stroke-linejoin:round;stroke-miterlimit:10;}
	.st13{fill:#00B8F0;}
	.st14{fill:#4ACFFF;}
	.st15{fill:#B89558;stroke:#45413C;stroke-linecap:round;stroke-linejoin:round;stroke-miterlimit:10;}
	.st16{fill:#B89558;}
	.st17{fill:#F7E5C6;}
	.st18{fill:#DEBB7E;}
	.st19{fill:#947746;stroke:#45413C;stroke-miterlimit:10;}
	.st20{fill:#FF866E;stroke:#45413C;stroke-miterlimit:10;}
	.st21{fill:#FFF5E3;stroke:#45413C;stroke-linecap:round;stroke-linejoin:round;stroke-miterlimit:10;}
	.st22{fill:#DEBB7E;stroke:#45413C;stroke-linecap:round;stroke-linejoin:round;stroke-miterlimit:10;}
	.st23{fill:#B89558;stroke:#45413C;stroke-miterlimit:10;}
	.st24{fill:#FFAA54;}
	.st25{fill:#724F3D;}
	.st26{fill:#A86C4D;}
	.st27{fill:#FFDA8F;}
	.st28{fill:#FFE9BD;}
	.st29{fill:#FFBE3D;}
	.st30{fill:#614B44;}
	.st31{fill:#947063;}
	.st32{fill:#D18660;}
	.st33{fill:#E09F7E;}
	.st34{fill:#BD704A;}
	.st35{fill:#FFDA8F;stroke:#45413C;stroke-linecap:round;stroke-linejoin:round;stroke-miterlimit:10;}
	.st36{fill:#D18660;stroke:#45413C;stroke-miterlimit:10;}
	.st37{fill:#DE926A;}
	.st38{fill:#FFCEBF;stroke:#45413C;stroke-linecap:round;stroke-linejoin:round;stroke-miterlimit:10;}
	.st39{fill:#FFB59E;}
	.st40{fill:#E0E0E0;}
	.st41{fill:#FFFFFF;}
	.st42{fill:#FFCEBF;}
	.st43{fill:#FFDCD1;}
	.st44{fill:#F0F0F0;stroke:#45413C;stroke-linecap:round;stroke-linejoin:round;stroke-miterlimit:10;}
	.st45{fill:#00DFEB;stroke:#45413C;stroke-linecap:round;stroke-linejoin:round;stroke-miterlimit:10;}
	.st46{fill:#EBCB00;}
	.st47{fill:#87898C;stroke:#45413C;stroke-linecap:round;stroke-linejoin:round;stroke-miterlimit:10;}
	.st48{fill:#C0DCEB;stroke:#45413C;stroke-linecap:round;stroke-linejoin:round;stroke-miterlimit:10;}
	.st49{fill:#E8F4FA;}
	.st50{fill:#80DDFF;}
	.st51{fill:#FF6196;}
	.st52{fill:#FF6196;stroke:#45413C;stroke-linecap:round;stroke-linejoin:round;stroke-miterlimit:10;}
	.st53{fill:#724F3D;stroke:#45413C;stroke-linecap:round;stroke-linejoin:round;stroke-miterlimit:10;}
	.st54{fill:#656769;stroke:#45413C;stroke-linecap:round;stroke-linejoin:round;stroke-miterlimit:10;}
	.st55{fill:#DAEDF7;stroke:#45413C;stroke-linecap:round;stroke-linejoin:round;stroke-miterlimit:10;}
	.st56{fill:#F0D5A8;}
	.st57{fill:#DAEDF7;}
	.st58{fill:#A86C4D;stroke:#45413C;stroke-linecap:round;stroke-linejoin:round;stroke-miterlimit:10;}
	.st59{fill:#FF6242;stroke:#45413C;stroke-linecap:round;stroke-linejoin:round;stroke-miterlimit:10;}
	.st60{fill:#009FD9;stroke:#45413C;stroke-linecap:round;stroke-linejoin:round;stroke-miterlimit:10;}
	.st61{fill:#656769;}
	.st62{fill:#525252;}
	.st63{fill:#525252;stroke:#45413C;stroke-linecap:round;stroke-linejoin:round;stroke-miterlimit:10;}
	.st64{fill:#6DD627;}
	.st65{fill:#009FD9;}
	.st66{fill:#ADC4D9;}
	.st67{fill:#C0DCEB;}
	.st68{fill:#FF8A14;}
	.st69{fill:#EB6D00;}
	.st70{fill:#00DBA8;stroke:#45413C;stroke-linecap:round;stroke-linejoin:round;stroke-miterlimit:10;}
	.st71{fill:#B8ECFF;}
	.st72{fill:#FF87AF;}
	.st73{fill:#80DDFF;stroke:#45413C;stroke-linecap:round;stroke-linejoin:round;stroke-miterlimit:10;}
	.st74{fill:#00DBA8;}
	.st75{fill:#00F5BC;}
	.st76{fill:#E5FEFF;stroke:#45413C;stroke-linecap:round;stroke-linejoin:round;stroke-miterlimit:10;}
	.st77{fill:#46B000;}
	.st78{fill:#46B000;stroke:#45413C;stroke-linecap:round;stroke-linejoin:round;stroke-miterlimit:10;}
	.st79{fill:#BF8256;stroke:#45413C;stroke-linecap:round;stroke-linejoin:round;stroke-miterlimit:10;}
	.st80{fill:#ADC4D9;stroke:#45413C;stroke-linecap:round;stroke-linejoin:round;stroke-miterlimit:10;}
	.st81{fill:#BDBEC0;}
	.st82{fill:#F0F0F0;}
	.st83{fill:#FFB59E;stroke:#45413C;stroke-linecap:round;stroke-linejoin:round;stroke-miterlimit:10;}
	.st84{fill:#45413C;}
	.st85{fill:#E04122;}
	.st86{fill:none;stroke:#48CF3E;stroke-linecap:round;stroke-linejoin:round;stroke-miterlimit:10;}
	.st87{fill:none;stroke:#FF4064;stroke-linecap:round;stroke-linejoin:round;stroke-miterlimit:10;}
	.st88{fill:none;stroke:#FFB700;stroke-linecap:round;stroke-linejoin:round;stroke-miterlimit:10;}
	.st89{fill:#BF8DF2;}
	.st90{fill:#9F5AE5;}
	.st91{fill:#00AD85;}
	.st92{fill:#8CA4B8;}
	.st93{fill:#627B8C;}
	.st94{fill:#627B8C;stroke:#45413C;stroke-linecap:round;stroke-linejoin:round;stroke-miterlimit:10;}
	.st95{fill:#87898C;}
	.st96{fill:#FF8A14;stroke:#45413C;stroke-linecap:round;stroke-linejoin:round;stroke-miterlimit:10;}
	.st97{fill:#E04122;stroke:#45413C;stroke-linecap:round;stroke-linejoin:round;stroke-miterlimit:10;}
	.st98{fill:#EBCB00;stroke:#45413C;stroke-linecap:round;stroke-linejoin:round;stroke-miterlimit:10;}
	.st99{fill:#6DD627;stroke:#45413C;stroke-linecap:round;stroke-linejoin:round;stroke-miterlimit:10;}
	.st100{fill:#FFB0CA;}
	.st101{fill:#FFB59E;stroke:#FFAA54;stroke-miterlimit:10;}
	.st102{fill:#FF87AF;stroke:#45413C;stroke-linecap:round;stroke-linejoin:round;stroke-miterlimit:10;}
</style>
<g>
	<ellipse id="XMLID_2493_" class="st5" cx="24" cy="45.5" rx="15" ry="1.5"/>
	<path class="st41" d="M32.7,32.8L24,30l-8.7,2.9c-3,1-5,3.5-5,6.3V45h27.6v-5.9C37.8,36.3,35.8,33.8,32.7,32.8z"/>
	<path class="st40" d="M32.7,32.8L24,30l-8.7,2.9c-3,1-5,3.5-5,6.3v3c0-2.8,2-5.3,5-6.3L24,33l8.7,2.9c3,1,5,3.5,5,6.3v-3
		C37.8,36.3,35.8,33.8,32.7,32.8z"/>
	<path class="st3" d="M32.7,32.8L24,30l-8.7,2.9c-3,1-5,3.5-5,6.3V45h27.6v-5.9C37.8,36.3,35.8,33.8,32.7,32.8z"/>
	<ellipse id="XMLID_4871_" class="st41" cx="24" cy="32" rx="9.1" ry="4.2"/>
	<path id="XMLID_4870_" class="st40" d="M24,27.9c-4.5,0-8.2,1.5-9,3.4c0.8,1.9,4.5,3.4,9,3.4s8.2-1.5,9-3.4
		C32.2,29.4,28.5,27.9,24,27.9z"/>
	<ellipse id="XMLID_4869_" class="st3" cx="24" cy="32" rx="9.1" ry="4.2"/>
	<line id="XMLID_2492_" class="st3" x1="32.2" y1="45" x2="32.2" y2="33.8"/>
	<line id="XMLID_2491_" class="st3" x1="15.8" y1="45" x2="15.8" y2="33.8"/>
	<path id="XMLID_4293_" class="st40" d="M38.5,16.2h-0.9c-1.4-6.3-6.9-11-13.6-11s-12.2,4.7-13.6,11H9.5c-0.6,0-1,0.4-1,1v3.9
		c0,0.6,0.4,1,1,1h0.9c1.4,6.3,6.9,11,13.6,11s12.2-4.7,13.6-11h0.9c0.6,0,1-0.4,1-1v-3.9C39.5,16.7,39,16.2,38.5,16.2z"/>
	<path class="st41" d="M38.5,16.2h-0.9c-1.4-6.3-6.9-11-13.6-11s-12.2,4.7-13.6,11H9.5c-0.6,0-1,0.4-1,1v2.3c0-0.6,0.5-1,1-1
		c0.5,0,0.9-0.3,1.1-0.8c1.6-5.9,7-10.1,13.4-10.1s11.8,4.3,13.4,10.1c0.1,0.5,0.6,0.8,1.1,0.8c0.6,0,1,0.4,1,1v-2.3
		C39.5,16.7,39,16.2,38.5,16.2z"/>
	<path id="XMLID_4291_" class="st3" d="M38.5,16.2h-0.9c-1.4-6.3-6.9-11-13.6-11s-12.2,4.7-13.6,11H9.5c-0.6,0-1,0.4-1,1v3.9
		c0,0.6,0.4,1,1,1h0.9c1.4,6.3,6.9,11,13.6,11s12.2-4.7,13.6-11h0.9c0.6,0,1-0.4,1-1v-3.9C39.5,16.7,39,16.2,38.5,16.2z"/>
	<circle id="XMLID_4290_" class="st54" cx="24" cy="19.2" r="11.6"/>
	<path class="st11" d="M26.1,14.7h-4.3c-3.9,0-7,3.1-7,7c0,0.5,0,0.9,0.1,1.4c0.7,4.3,4.4,7.7,9,7.7s8.3-3.4,9-7.7
		c0.1-0.4,0.1-0.9,0.1-1.4C33.1,17.9,30,14.7,26.1,14.7z"/>
	<g>
		<circle id="XMLID_2490_" class="st12" cx="19.3" cy="20.9" r="0.8"/>
		<circle id="XMLID_2489_" class="st12" cx="28.7" cy="20.9" r="0.8"/>
		<g id="XMLID_2479_">
			<g id="XMLID_2480_">
				<g id="XMLID_2481_">
					<g id="XMLID_2482_">
						<g id="XMLID_2483_">
							<g id="XMLID_2484_">
								<g id="XMLID_2486_">
									<path id="XMLID_2488_" class="st7" d="M21.2,25.6c-0.1,0-0.3,0.1-0.3,0.2c-0.1,0.1-0.1,0.2-0.1,0.4
										c0.2,1.6,1.6,2.8,3.3,2.8c1.7,0,3-1.2,3.3-2.8c0-0.1,0-0.3-0.1-0.4c-0.1-0.1-0.2-0.2-0.3-0.2H21.2z"/>
									<path id="XMLID_2487_" class="st1" d="M24,27c-1,0-1.9,0.3-2.5,0.8c0.6,0.7,1.5,1.1,2.5,1.1s1.9-0.4,2.5-1.1
										C25.9,27.3,25,27,24,27z"/>
								</g>
							</g>
						</g>
					</g>
				</g>
			</g>
		</g>
		<g id="XMLID_2477_">
			<path id="XMLID_2478_" class="st3" d="M21.2,25.6c-0.1,0-0.3,0.1-0.3,0.2c-0.1,0.1-0.1,0.2-0.1,0.4c0.2,1.6,1.6,2.8,3.3,2.8
				c1.7,0,3-1.2,3.3-2.8c0-0.1,0-0.3-0.1-0.4c-0.1-0.1-0.2-0.2-0.3-0.2H21.2z"/>
		</g>
		<ellipse id="XMLID_2476_" class="st24" cx="18.1" cy="24.2" rx="1" ry="0.6"/>
		<ellipse id="XMLID_2475_" class="st24" cx="29.9" cy="24.2" rx="1" ry="0.6"/>
	</g>
	<path class="st13" d="M24,7.6c-5.6,0-10.3,4-11.4,9.2c3-1.3,7-2.1,11.4-2.1c4.4,0,8.4,0.8,11.4,2.1C34.3,11.6,29.6,7.6,24,7.6z"/>
	<path class="st14" d="M24,10.5c5.7,0,10.4,2.7,11.3,6.2c-1.1-5.2-5.8-9.1-11.3-9.1s-10.2,3.9-11.3,9.1C13.6,13.2,18.3,10.5,24,10.5
		z"/>
	<path class="st3" d="M24,7.6c-5.6,0-10.3,4-11.4,9.2c3-1.3,7-2.1,11.4-2.1c4.4,0,8.4,0.8,11.4,2.1C34.3,11.6,29.6,7.6,24,7.6z"/>
	<rect id="XMLID_4270_" x="17.8" y="39.4" class="st59" width="4.5" height="2.5"/>
	<circle id="XMLID_4269_" class="st60" cx="28.9" cy="40.7" r="1.2"/>
</g>
</svg>
